<svg xmlns="http://www.w3.org/2000/svg" xmlns:xlink="http://www.w3.org/1999/xlink" viewBox="0 0 1127.08 353.96"><defs><style>.cls-1{fill:none;}.cls-2{fill:#c5c6c7;}.cls-3{clip-path:url(#clip-path);}</style><clipPath id="clip-path" transform="translate(-396.46 -364.54)"><rect class="cls-1" width="1920" height="1080"/></clipPath></defs><g id="Layer_2" data-name="Layer 2"><g id="Layer_1-2" data-name="Layer 1"><path class="cls-2" d="M396.46,562.34h77.89v9.42H406.3v79.58h70.87v9.42H396.46Zm8.3,43.73h64v9.42h-64Z" transform="translate(-396.46 -364.54)"/><polygon class="cls-2" points="173.92 266.7 184.88 266.7 208.65 306.07 197.68 306.07 173.92 266.7"/><path class="cls-2" d="M631.4,562.34h92v9.42h-92Zm41.05,7.74h9.84v90.68h-9.84Z" transform="translate(-396.46 -364.54)"/><g class="cls-3"><path class="cls-2" d="M781,562.34h40.78q20.24,0,34.3,6.19T877,585.82q6.88,11.11,6.89,25.73T877,637.28q-6.88,11.12-20.95,17.3t-34.3,6.18H781Zm40.78,89q17.28,0,28.82-5.06t17.29-14.06a37.51,37.51,0,0,0,5.77-20.67,38.23,38.23,0,0,0-5.77-20.81q-5.76-8.85-17.29-13.92t-28.82-5.06H790.83v79.58Z" transform="translate(-396.46 -364.54)"/><path class="cls-2" d="M944.65,562.34h12.09l50.89,98.42H997.37l-46.26-89.42h-.84L904,660.76H893.75Zm-27.56,61.3h67.07l.56,9.42H916.67Z" transform="translate(-396.46 -364.54)"/><path class="cls-2" d="M1021,562.34h54.27q12.24,0,21.09,3.66a27.94,27.94,0,0,1,12.8,10.4,27.22,27.22,0,0,1,4.21,15.19,26.67,26.67,0,0,1-3.09,13.07,23.91,23.91,0,0,1-8.86,9.28,28.54,28.54,0,0,1-13.63,4.36v.7q10.26.57,15.6,6.19t5.2,15.47v20.1h-9.84V641.08q0-8.72-5.06-13.08-5.34-4.5-16-4.5h-48.36v-9.42h46q13.63,0,20.81-5.9a18.81,18.81,0,0,0,7-15.33,19.06,19.06,0,0,0-7-15.32q-7.3-5.76-20.81-5.77h-44.43v89H1021Z" transform="translate(-396.46 -364.54)"/><rect class="cls-2" x="347.44" y="197.81" width="9.92" height="98.42"/><path class="cls-2" d="M557.92,665c-31.35,0-56.85-24-56.85-53.47s25.5-53.46,56.85-53.46,56.85,24,56.85,53.46S589.27,665,557.92,665m0-98.42c-26.65,0-48.34,20.17-48.34,44.95s21.69,45,48.34,45,48.33-20.16,48.33-45-21.68-44.95-48.33-44.95" transform="translate(-396.46 -364.54)"/><path class="cls-2" d="M1170.93,561.33l34.79-18.85,35-18.94-35-18.94-34.79-18.85a142.79,142.79,0,0,1,0,75.58" transform="translate(-396.46 -364.54)"/><path class="cls-2" d="M1169.58,563l.53-1.92a141.93,141.93,0,0,0,0-75.13l-.53-1.91,72.89,39.48Zm2.67-75.59a143.64,143.64,0,0,1,0,72.21l66.66-36.1Z" transform="translate(-396.46 -364.54)"/><rect class="cls-2" x="818.95" y="156.23" width="113.05" height="5.55"/><path class="cls-2" d="M1331,528.86H1212.86V518.22H1331Zm-113-5.09h108v-.46H1218Z" transform="translate(-396.46 -364.54)"/><path class="cls-2" d="M1486.24,485.75l-34.79,18.85-35,18.94,35,18.94,34.79,18.85a142.79,142.79,0,0,1,0-75.58" transform="translate(-396.46 -364.54)"/><path class="cls-2" d="M1487.58,563l-72.89-39.48,72.89-39.48-.52,1.91a141.93,141.93,0,0,0,0,75.13Zm-69.33-39.48,66.66,36.1a143.64,143.64,0,0,1,0-72.21Z" transform="translate(-396.46 -364.54)"/><rect class="cls-2" x="932.25" y="156.23" width="113.05" height="5.55"/><path class="cls-2" d="M1444.3,528.86H1326.17V518.22H1444.3Zm-113-5.09h108v-.46h-108Z" transform="translate(-396.46 -364.54)"/><path class="cls-2" d="M1366.37,681.2l-18.84-34.8-19-35-18.94,35-18.84,34.8a142.75,142.75,0,0,1,75.57,0" transform="translate(-396.46 -364.54)"/><path class="cls-2" d="M1289.1,682.54l39.48-72.89,39.48,72.89-1.91-.53a141.93,141.93,0,0,0-75.13,0Zm39.48-7.28a143.78,143.78,0,0,1,36.11,4.61l-36.11-66.66-36.1,66.66a143.14,143.14,0,0,1,35.43-4.61h.67" transform="translate(-396.46 -364.54)"/><rect class="cls-2" x="929.35" y="159.13" width="5.55" height="113.05"/><path class="cls-2" d="M1333.9,639.26h-10.63V521.13h10.63Zm-5.55-5.09h.47v-108h-.47Z" transform="translate(-396.46 -364.54)"/><path class="cls-2" d="M1290.8,365.88l18.84,34.8,18.94,35,19-35,18.84-34.8a142.75,142.75,0,0,1-75.57,0" transform="translate(-396.46 -364.54)"/><path class="cls-2" d="M1328.58,437.43l-39.48-72.89,1.92.52a141.93,141.93,0,0,0,75.13,0l1.91-.52Zm-36.1-70.22,36.1,66.66,36.11-66.66a144.09,144.09,0,0,1-35.43,4.61h-.68a143.7,143.7,0,0,1-36.1-4.61" transform="translate(-396.46 -364.54)"/><rect class="cls-2" x="929.35" y="45.82" width="5.55" height="113.05"/><path class="cls-2" d="M1333.9,526h-10.63V407.82h10.63Zm-5.55-5.09h.47V412.91h-.47Z" transform="translate(-396.46 -364.54)"/><path class="cls-2" d="M1190.38,438.78l37.93,11.28,38.13,11.33-11.34-38.12-11.28-37.93a142.74,142.74,0,0,1-53.44,53.44" transform="translate(-396.46 -364.54)"/><path class="cls-2" d="M1267.69,462.65,1188.24,439l1.72-1a141.95,141.95,0,0,0,53.13-53.12l1-1.73Zm-75.18-24.12,72.67,21.6-21.61-72.67a143.55,143.55,0,0,1-51.06,51.07" transform="translate(-396.46 -364.54)"/><rect class="cls-2" x="1285.75" y="426.96" width="5.55" height="113.05" transform="translate(-360.93 688.19) rotate(-45)"/><path class="cls-2" d="M1326.53,529,1243,445.47l7.52-7.52,83.53,83.53Zm-76.34-83.54,76.34,76.34.33-.33-76.34-76.34Z" transform="translate(-396.46 -364.54)"/><path class="cls-2" d="M1521.39,662.91l-37.93-11.28-38.12-11.33,11.34,38.12L1468,716.35a142.74,142.74,0,0,1,53.44-53.44" transform="translate(-396.46 -364.54)"/><path class="cls-2" d="M1467.71,718.49,1444.08,639l79.46,23.62-1.73,1a141.94,141.94,0,0,0-53.12,53.13Zm-21.11-76.94,21.6,72.67a143.77,143.77,0,0,1,51.07-51.06Z" transform="translate(-396.46 -364.54)"/><rect class="cls-2" x="1393.06" y="495.5" width="5.55" height="190.59" transform="translate(-405.38 795.51) rotate(-45)"/><path class="cls-2" d="M1461.26,663.73,1322.9,525.37l7.52-7.52,138.36,138.36ZM1330.09,525.37l131.17,131.17.33-.33L1330.42,525Z" transform="translate(-396.46 -364.54)"/><path class="cls-2" d="M1243.82,661.74l11.28-37.93,11.34-38.12L1228.31,597l-37.93,11.28a142.55,142.55,0,0,1,53.44,53.44" transform="translate(-396.46 -364.54)"/><path class="cls-2" d="M1244.07,663.89l-1-1.73A142.07,142.07,0,0,0,1190,609l-1.72-1,79.45-23.62Zm-51.56-55.34a143.63,143.63,0,0,1,51.06,51.06l21.61-72.67Z" transform="translate(-396.46 -364.54)"/><rect class="cls-2" x="1232" y="560.82" width="113.05" height="5.55" transform="translate(-417.59 711.66) rotate(-45)"/><path class="cls-2" d="M1250.52,609.12,1243,601.6l83.53-83.53,7.52,7.52Zm-.33-7.52.33.33,76.34-76.34-.33-.33Z" transform="translate(-396.46 -364.54)"/><path class="cls-2" d="M1413.34,385.34l-11.27,37.93-11.34,38.12,38.13-11.33,37.92-11.28a142.93,142.93,0,0,1-53.44-53.44" transform="translate(-396.46 -364.54)"/><path class="cls-2" d="M1389.47,462.65l23.63-79.46,1,1.73A142,142,0,0,0,1467.2,438l1.73,1Zm24.12-75.18L1392,460.13l72.67-21.6a143.55,143.55,0,0,1-51.07-51.06" transform="translate(-396.46 -364.54)"/><rect class="cls-2" x="1312.12" y="480.7" width="113.05" height="5.55" transform="translate(-337.47 744.85) rotate(-45)"/><path class="cls-2" d="M1330.64,529l-7.52-7.53L1406.65,438l7.52,7.52Zm-.33-7.53.33.33L1407,445.47l-.33-.32Z" transform="translate(-396.46 -364.54)"/></g><path class="cls-2" d="M398.83,521.36a46.61,46.61,0,0,0,9.3,1.18q6.21,0,9.16-3.62t3-11.89V433.32h11.37V507q0,13.31-5.32,19.87t-16.25,6.57a55.61,55.61,0,0,1-13.59-1.92l2.37-10.19ZM455,392.84h11.38V501.27H455Zm117.74,97.5v10.93h-83V490.34h55.39V469.51q0-17.58-10.71-26.22t-32.72-8.64H498V423.27h4q26.45,0,40.47,11.82t14,34v21.27Zm-6.35,5.47a4.91,4.91,0,0,1,1.77-4,6.89,6.89,0,0,1,4.58-1.48h29.54v10.93H572.7a6.81,6.81,0,0,1-4.65-1.48,5,5,0,0,1-1.7-4Zm29.54,0a4.91,4.91,0,0,1,1.77-4,6.91,6.91,0,0,1,4.58-1.48h29.55v10.93H602.24a6.81,6.81,0,0,1-4.65-1.48,5,5,0,0,1-1.7-4Zm29.55,0a4.91,4.91,0,0,1,1.77-4,6.89,6.89,0,0,1,4.58-1.48h29.54v10.93H631.79a6.86,6.86,0,0,1-4.66-1.48,5,5,0,0,1-1.69-4Zm29.54,0a4.91,4.91,0,0,1,1.77-4,6.89,6.89,0,0,1,4.58-1.48h29.55v10.93H661.33a6.81,6.81,0,0,1-4.65-1.48,5,5,0,0,1-1.7-4Zm29.54,0a4.92,4.92,0,0,1,1.78-4,6.89,6.89,0,0,1,4.58-1.48h29.54v10.93H690.88a6.86,6.86,0,0,1-4.66-1.48,5,5,0,0,1-1.7-4Zm29.55,0a4.91,4.91,0,0,1,1.77-4,6.89,6.89,0,0,1,4.58-1.48H750v10.93H720.42a6.81,6.81,0,0,1-4.65-1.48,5,5,0,0,1-1.7-4Zm29.54,0a4.89,4.89,0,0,1,1.78-4,6.89,6.89,0,0,1,4.58-1.48h29.54v10.93H750a6.86,6.86,0,0,1-4.66-1.48,5,5,0,0,1-1.7-4Zm29.55,0a4.91,4.91,0,0,1,1.77-4,6.89,6.89,0,0,1,4.58-1.48h29.54v10.93H779.51a6.81,6.81,0,0,1-4.65-1.48,5,5,0,0,1-1.7-4Zm29.54,0a4.91,4.91,0,0,1,1.77-4,6.91,6.91,0,0,1,4.58-1.48H838.6v10.93H809.05a6.83,6.83,0,0,1-4.65-1.48,5,5,0,0,1-1.7-4Zm29.55,0a4.91,4.91,0,0,1,1.77-4,6.89,6.89,0,0,1,4.58-1.48h29.54v10.93H838.6a6.81,6.81,0,0,1-4.65-1.48,5,5,0,0,1-1.7-4Zm29.54,0a4.91,4.91,0,0,1,1.77-4,6.91,6.91,0,0,1,4.58-1.48h29.55v10.93H868.14a6.81,6.81,0,0,1-4.65-1.48,5,5,0,0,1-1.7-4ZM933,466q0,12.27,5.91,18.32t17.88,6.06v10.93q-21.13,0-28.51-15.36a28.19,28.19,0,0,1-12,11.45q-7.76,3.92-18.54,3.91a6.52,6.52,0,0,1-4.58-1.62,5.38,5.38,0,0,1-1.77-4.14,4.65,4.65,0,0,1,1.69-3.77,7.16,7.16,0,0,1,4.66-1.4q23.92,0,23.93-24.38V433.32H933V466Zm-17.58-48.15a7.07,7.07,0,0,1-6.94-6.95,6.43,6.43,0,0,1,2.07-4.8,6.78,6.78,0,0,1,4.87-2,6.79,6.79,0,0,1,6.8,6.79,6.83,6.83,0,0,1-2,4.88,6.45,6.45,0,0,1-4.81,2.07Zm23.64,0a7.07,7.07,0,0,1-6.94-6.95,6.39,6.39,0,0,1,2.07-4.8,6.76,6.76,0,0,1,4.87-2,6.81,6.81,0,0,1,6.8,6.79,6.79,6.79,0,0,1-2,4.88,6.43,6.43,0,0,1-4.8,2.07Zm11.37,78a4.89,4.89,0,0,1,1.78-4,6.89,6.89,0,0,1,4.58-1.48h29.54v10.93H956.78a6.86,6.86,0,0,1-4.66-1.48,5,5,0,0,1-1.7-4Zm121.14,5.46H986.32a7.11,7.11,0,0,1-4.65-1.4A4.81,4.81,0,0,1,980,496a5.16,5.16,0,0,1,1.7-4.21,7.11,7.11,0,0,1,4.65-1.4h24.23A32.1,32.1,0,0,1,1002,478a42.56,42.56,0,0,1,1.92-34.71q4.73-8.94,15.14-14.48t26.81-5.54h25.71Zm-11.38-66.62h-14.62q-18.46,0-26.81,8.05a26.67,26.67,0,0,0-8.35,20,26,26,0,0,0,8.35,19.8q8.34,7.83,27.1,7.83h14.33Zm-36.34-23.93a7.07,7.07,0,0,1-6.94-7A6.43,6.43,0,0,1,1019,399a6.78,6.78,0,0,1,4.87-2,6.81,6.81,0,0,1,6.8,6.79,6.81,6.81,0,0,1-2,4.88,6.43,6.43,0,0,1-4.8,2.07Zm23.64,0a7.05,7.05,0,0,1-6.94-7,6.42,6.42,0,0,1,2.06-4.8,6.8,6.8,0,0,1,4.88-2,6.79,6.79,0,0,1,6.79,6.79,6.8,6.8,0,0,1-2,4.88,6.43,6.43,0,0,1-4.8,2.07Zm47.42-17.88h11.37V501.27H1094.9Z" transform="translate(-396.46 -364.54)"/></g></g></svg>